# xmcd CD database file
#
# Track frame offsets:
#	150
#	15785
#	31322
#	47140
#	59660
#	73992
#	89257
#	100677
#	112577
#	127285
#	145247
#
# Disc length: 2104 seconds
#
# Revision: 0
# Processed by: cddbd v1.4PL0 Copyright (c) Steve Scherf et al.
# Submitted via: CDex 1.40Beta8
#
DISCID=9308360b
DTITLE=Edel Ellingsen - Thanks To Patsy
DYEAR=1998
DGENRE=Country
TTITLE0=Where Did I Go Wrong
TTITLE1=Thanks To Patsy
TTITLE2=I Closed My Eyes
TTITLE3=Whatever You Do
TTITLE4=Don't Play Easy With Me
TTITLE5=Thons Of Guilt
TTITLE6=Heartfelt Feelings
TTITLE7=Make Me Smile
TTITLE8=Home
TTITLE9=What Am I Doing
TTITLE10=Sleep, Baby Sleep
EXTD=YEAR: 1998 ID3G: 2
EXTT0=
EXTT1=
EXTT2=
EXTT3=
EXTT4=
EXTT5=
EXTT6=
EXTT7=
EXTT8=
EXTT9=
EXTT10=
PLAYORDER=
